<svg width="126" height="143" viewBox="0 0 126 143" fill="none" xmlns="http://www.w3.org/2000/svg">
<path fill-rule="evenodd" clip-rule="evenodd" d="M45.3683 20.9449C45.3659 20.9529 45.3635 20.961 45.3612 20.969C44.8271 20.6258 44.2819 20.3304 43.725 20.0809C40.7295 18.7392 37.8286 18.9234 35.3426 19.4571C34.1142 19.7208 32.9254 20.0841 31.8643 20.4148L31.567 20.5076L31.5669 20.5076C30.5908 20.8124 29.7349 21.0796 28.8999 21.2818C27.0653 21.7259 25.8753 21.7089 24.8878 21.229L19.9485 18.8287L20.8706 24.2424C21.1784 26.05 20.9258 27.9878 20.4412 30.2369C20.3316 30.7456 20.2041 31.2902 20.0713 31.8579L20.0713 31.8579L20.0713 31.8579C19.6661 33.5896 19.2107 35.5357 19.0578 37.3326C18.8513 39.7602 19.1231 42.4 20.7778 44.8615C20.4045 44.9513 20.0408 45.0558 19.6863 45.1749C16.3872 46.2836 14.3335 48.5018 12.876 50.7109C12.1598 51.7965 11.5587 52.9244 11.0339 53.927L10.8528 54.2734C10.3852 55.1685 9.9821 55.9401 9.54856 56.646C8.57762 58.2271 7.79381 58.8961 6.85489 59.1291L8.13894e-06 60.8305L6.1388 64.3232C7.62658 65.1697 8.75827 66.5246 9.91986 68.3512C10.3304 68.9968 10.7053 69.6348 11.1047 70.3147L11.105 70.3152L11.1051 70.3154C11.2824 70.6172 11.4646 70.9273 11.6569 71.25C12.254 72.252 12.9198 73.3233 13.692 74.3222C15.2708 76.3645 17.4081 78.2477 20.637 78.9063C20.7737 78.9342 20.9116 78.9597 21.0505 78.9828C19.7142 81.6229 19.6402 84.3622 19.9119 86.7897C20.0552 88.0707 20.3032 89.3323 20.5478 90.4946C20.6102 90.7913 20.6718 91.0789 20.7319 91.3596L20.7319 91.3599L20.7319 91.36C20.9157 92.2184 21.0857 93.0127 21.2249 93.8092C21.5978 95.9435 21.6161 97.4561 21.1592 98.643L19.2192 103.683L24.4649 102.4C25.9487 102.037 27.7899 102.218 30.1742 102.725C30.8262 102.863 31.5476 103.035 32.3068 103.215C34.0384 103.627 35.9664 104.086 37.7161 104.306C40.3603 104.64 43.3676 104.572 46.1096 102.911C48.2199 101.633 49.8653 99.6005 51.0988 96.7902C54.8025 98.0125 58.7638 98.6742 62.8791 98.6742C66.72 98.6742 70.4268 98.0978 73.9152 97.0272C75.133 100.026 76.7632 102.197 78.8971 103.548C81.668 105.303 84.7148 105.311 87.3749 104.902C89.0769 104.64 90.9875 104.13 92.7211 103.666L92.7213 103.666L92.722 103.666L92.7244 103.665C93.5415 103.447 94.3193 103.239 95.0173 103.072C97.4527 102.492 99.4351 102.25 101.127 102.624L106.499 103.813L104.332 98.7557C103.915 97.7816 103.968 96.6663 104.512 94.9131C104.721 94.2371 104.967 93.5722 105.245 92.8209L105.245 92.8204L105.359 92.5118C105.412 92.3675 105.467 92.2198 105.522 92.068C105.896 91.0433 106.297 89.8837 106.572 88.6624C107.139 86.1405 107.186 83.2425 105.505 80.2286C105.287 79.838 105.043 79.452 104.773 79.07C104.818 79.0617 104.862 79.0532 104.906 79.0444C104.949 79.0357 104.993 79.0268 105.036 79.0176C108.255 78.3343 110.35 76.408 111.88 74.3458C112.628 73.337 113.271 72.2561 113.847 71.2489C114.016 70.952 114.178 70.6651 114.336 70.3853L114.336 70.3851L114.337 70.3849L114.337 70.3847L114.337 70.3845L114.337 70.3843C114.739 69.6723 115.115 69.0064 115.527 68.338C116.654 66.508 117.763 65.1602 119.235 64.3222L125.374 60.8288L118.519 59.1281C117.562 58.8907 116.71 58.1753 115.648 56.5246C115.157 55.7609 114.693 54.9166 114.16 53.9457L114.16 53.9455L114.044 53.7334C113.482 52.7103 112.848 51.5669 112.114 50.4689C110.634 48.2557 108.59 45.9823 105.382 44.8147C105.186 44.7434 104.988 44.6768 104.787 44.6149C106.08 42.3079 106.198 39.8052 105.991 37.5904C105.843 36.008 105.47 34.2009 105.138 32.5875L105.138 32.5871L105.138 32.5868C104.979 31.8178 104.829 31.0929 104.718 30.4572C104.323 28.2131 104.239 26.4726 104.683 25.0473L106.289 19.8947L101.141 21.5137C99.893 21.9061 98.3048 21.8053 96.0864 21.3329C95.4378 21.1948 94.6807 21.0085 93.8683 20.8086L93.8682 20.8086L93.8681 20.8085L93.868 20.8085C92.2709 20.4155 90.4601 19.9699 88.8388 19.7342C86.2055 19.3514 83.2264 19.3381 80.3214 20.73C80.298 20.6102 80.2724 20.4911 80.2446 20.3727C79.4938 17.1736 77.3137 15.1668 75.202 13.7432C74.148 13.0328 73.0153 12.4047 71.9793 11.8365L71.7259 11.6976C70.7527 11.1643 69.8624 10.6765 69.0231 10.1464C67.1997 8.99475 66.0119 7.87808 65.4159 6.45857L62.7042 0L60.1792 6.53385C59.7552 7.63088 58.7146 8.69478 56.8441 9.98647C56.0797 10.5144 55.2691 11.021 54.3873 11.5721C54.2174 11.6783 54.0448 11.7862 53.8694 11.8962C52.8161 12.5566 51.6816 13.2814 50.612 14.0849C48.4923 15.6775 46.317 17.8032 45.3852 20.8884C45.3795 20.9072 45.3739 20.9261 45.3683 20.9449ZM41.4167 25.2343C42.619 25.7728 44.0499 26.8774 45.6243 29.1451C38.8645 32.651 33.3236 38.1532 29.8064 44.8657C27.5049 43.8452 26.2689 42.8079 25.596 41.8982C24.7862 40.8035 24.5365 39.5477 24.6842 37.8112C24.7995 36.4555 25.1142 35.109 25.4865 33.5157L25.4866 33.5153C25.6384 32.8657 25.7998 32.1752 25.9612 31.4262C26.2387 30.1382 26.4987 28.7293 26.603 27.2489C27.8889 27.254 29.117 27.039 30.2284 26.7699C31.2539 26.5217 32.2899 26.1978 33.2341 25.9027L33.5444 25.8058C34.6097 25.4738 35.5776 25.182 36.5278 24.978C38.3992 24.5762 39.9439 24.5745 41.4167 25.2343ZM96.0259 78.6227C92.3482 85.7158 86.416 91.4703 79.1719 94.966C80.077 97.1716 81.0689 98.24 81.9183 98.778C83.0089 99.4687 84.4234 99.6424 86.5175 99.3207C87.9356 99.1029 89.2903 98.7376 90.8133 98.327L90.8136 98.3269C91.7054 98.0865 92.6549 97.8305 93.7086 97.5794C95.1691 97.2315 96.7684 96.9165 98.4229 96.8256C98.4885 95.5301 98.7847 94.3174 99.1181 93.2415C99.377 92.4062 99.6951 91.5467 99.9836 90.767L99.9838 90.7665L99.9838 90.7664L99.9839 90.7662C100.065 90.5483 100.143 90.3366 100.217 90.1334C100.576 89.149 100.872 88.2725 101.062 87.4238C101.426 85.806 101.382 84.4293 100.574 82.9801C99.8983 81.7699 98.5724 80.2996 96.0259 78.6227ZM21.485 50.5275C22.7987 50.086 24.6821 49.9029 27.46 50.4164C26.283 54.0043 25.6467 57.8348 25.6467 61.8144C25.6467 65.6305 26.2318 69.3097 27.3178 72.7693C24.7262 73.568 22.9759 73.6204 21.7655 73.3735C20.3054 73.0757 19.2363 72.2617 18.1594 70.8687C17.6038 70.1498 17.0794 69.3188 16.5075 68.3593C16.3542 68.1021 16.1941 67.8296 16.0287 67.548L16.0284 67.5475C15.6072 66.8308 15.1513 66.0548 14.6846 65.321C14.0327 64.2959 13.2813 63.2206 12.3651 62.2101C13.1773 61.392 13.8224 60.4769 14.3603 59.601C14.9042 58.7154 15.404 57.7575 15.8586 56.8864L15.8586 56.8864L15.8598 56.8841L15.8641 56.8759L15.8661 56.872C15.9236 56.7618 15.9804 56.653 16.0365 56.5459C16.5597 55.5465 17.0456 54.6445 17.5892 53.8205C18.6515 52.2105 19.8091 51.0906 21.485 50.5275ZM98.1327 49.9212C99.416 53.6511 100.113 57.6511 100.113 61.8144C100.113 65.6825 99.5113 69.4098 98.3967 72.9104C100.971 73.701 102.69 73.743 103.863 73.494C105.272 73.1949 106.301 72.3896 107.345 70.9819C107.883 70.2558 108.39 69.4172 108.944 68.4466C109.08 68.21 109.22 67.9613 109.365 67.7049L109.37 67.6954L109.37 67.695C109.79 66.9518 110.246 66.1439 110.719 65.3761C111.357 64.3408 112.097 63.2549 113.006 62.2352C112.157 61.4056 111.474 60.473 110.899 59.5797C110.295 58.6415 109.739 57.6271 109.23 56.6977L109.094 56.4514C108.528 55.4193 108 54.4761 107.42 53.6078C106.27 51.8883 105.07 50.7101 103.451 50.1207C102.252 49.6843 100.572 49.4804 98.1327 49.9212ZM26.2088 81.3082C26.7467 80.3553 27.7188 79.2929 29.5411 78.2471C33.0857 85.281 38.8343 91.0316 45.8859 94.6188C45.0092 96.5792 44.041 97.5622 43.1839 98.0815C42.0226 98.785 40.5259 98.9692 38.4225 98.7039C36.9718 98.521 35.5742 98.1867 34.0211 97.8152C33.186 97.6154 32.3058 97.4048 31.3482 97.2013C30.0408 96.9234 28.6153 96.6692 27.15 96.5894C27.1581 95.2739 26.9905 94.0004 26.7873 92.8373C26.6279 91.9248 26.4265 90.9845 26.2376 90.1028C26.1813 89.8399 26.1261 89.5823 26.0735 89.3321C25.8355 88.2007 25.6351 87.1594 25.5235 86.1618C25.3007 84.1706 25.4654 82.625 26.2088 81.3082ZM79.4914 28.8196C86.46 32.2645 92.1885 37.8096 95.824 44.6225C98.0072 43.8649 99.0765 42.9794 99.6237 42.2241C100.308 41.2802 100.548 40.0301 100.369 38.116C100.247 36.816 99.9915 35.592 99.7014 34.2043L99.7013 34.2038L99.7012 34.2032L99.701 34.2022C99.5246 33.3585 99.3356 32.4541 99.1564 31.4353C98.9359 30.1817 98.7479 28.8082 98.7381 27.3892C97.3972 27.334 96.0992 27.1089 94.9104 26.8558C93.8665 26.6335 92.9386 26.402 92.0588 26.1825C90.6835 25.8393 89.4258 25.5255 88.0265 25.3221C85.9277 25.017 84.2279 25.1149 82.7465 25.8294C81.7295 26.3199 80.6145 27.1994 79.4914 28.8196ZM62.8791 24.9555C58.748 24.9555 54.772 25.6222 51.0561 26.8535C50.424 24.8751 50.4935 23.5051 50.7907 22.521C51.2105 21.131 52.2593 19.9101 54.0038 18.5994C54.8664 17.9513 55.8241 17.3354 56.869 16.6802C57.027 16.5811 57.1876 16.4808 57.3504 16.3791L57.3524 16.3778C58.2326 15.828 59.172 15.2412 60.0529 14.6329C60.9636 14.0039 61.9217 13.2815 62.7988 12.428C63.8081 13.432 64.9283 14.2388 66.0078 14.9205C67.0037 15.5495 68.0468 16.1208 68.9915 16.6382L69.2637 16.7873C70.3145 17.3636 71.2338 17.8781 72.0456 18.4254C73.6654 19.5173 74.4713 20.4869 74.7473 21.6628C74.9772 22.6425 74.9363 24.1806 73.9853 26.624C70.4765 25.5396 66.7458 24.9555 62.8791 24.9555ZM62.8791 93.0275C45.4055 93.0275 31.2933 79.0238 31.2933 61.8144C31.2933 44.605 45.4054 30.6021 62.8791 30.6021C80.3529 30.6021 94.4658 44.6051 94.4658 61.8144C94.4658 79.0237 80.3528 93.0275 62.8791 93.0275ZM8.78587 115.818L4.43928 142H21.0075L21.57 138.599H8.95206L10.2816 130.584H21.8896L22.4521 127.196H10.8441L12.1737 119.219H24.6381L25.2006 115.818H8.78587ZM39.2983 130.571L39.848 127.247H28.2273L27.6776 130.571H39.2983ZM51.9354 115.818H47.1413L42.7947 142H46.5533L49.7237 123.041H49.9666L54.5178 141.962H57.6499L68.5163 123.054H68.7592L65.6016 142H69.3601L73.7067 115.818H68.9126L57.228 136.17H56.9212L51.9354 115.818ZM77.1999 141.744C78.1289 142.205 79.2156 142.435 80.4599 142.435C81.5423 142.435 82.4968 142.277 83.3235 141.962C84.1502 141.646 84.8491 141.25 85.4201 140.773C85.9996 140.295 86.4513 139.81 86.7752 139.315H86.9286L86.4684 142H90.2013L92.3619 128.96C92.6005 127.528 92.5494 126.365 92.2085 125.47C91.8675 124.567 91.3477 123.872 90.6488 123.386C89.9585 122.901 89.1914 122.568 88.3477 122.389C87.5039 122.202 86.69 122.108 85.9059 122.108C84.7212 122.108 83.5621 122.278 82.4286 122.619C81.2951 122.952 80.2511 123.489 79.2965 124.23C78.3505 124.963 77.5707 125.926 76.957 127.119L80.3832 127.938C80.7923 127.239 81.4272 126.608 82.288 126.045C83.1573 125.483 84.2312 125.202 85.5096 125.202C86.7369 125.202 87.5977 125.513 88.092 126.135C88.5948 126.749 88.7567 127.609 88.5778 128.717V128.807C88.5011 129.267 88.2752 129.599 87.9002 129.804C87.5252 130 86.9627 130.145 86.2127 130.239C85.4712 130.332 84.5039 130.447 83.3107 130.584C82.3647 130.686 81.4272 130.844 80.4982 131.057C79.5692 131.27 78.7085 131.589 77.9158 132.016C77.1232 132.433 76.4499 133 75.896 133.716C75.3505 134.432 74.984 135.344 74.7965 136.452C74.5835 137.739 74.6985 138.825 75.1417 139.712C75.5849 140.598 76.271 141.276 77.1999 141.744ZM84.5891 138.74C83.771 139.158 82.8292 139.366 81.7638 139.366C80.6815 139.366 79.8335 139.128 79.2198 138.651C78.6147 138.165 78.3888 137.449 78.5423 136.503C78.6531 135.821 78.9258 135.276 79.3604 134.866C79.7951 134.449 80.3363 134.129 80.984 133.908C81.6403 133.686 82.3434 133.528 83.0934 133.435C83.4087 133.384 83.805 133.328 84.2823 133.268C84.7681 133.209 85.2624 133.136 85.7653 133.051C86.2681 132.966 86.7198 132.868 87.1204 132.757C87.5295 132.646 87.815 132.523 87.9769 132.386L87.555 134.918C87.4272 135.693 87.1076 136.422 86.5962 137.104C86.0849 137.777 85.4158 138.322 84.5891 138.74ZM98.5653 122.364L95.2926 142H99.1151L101.084 130.009C101.237 129.156 101.574 128.398 102.094 127.733C102.614 127.06 103.257 126.536 104.024 126.161C104.791 125.777 105.622 125.585 106.517 125.585C106.926 125.585 107.322 125.615 107.706 125.675C108.089 125.726 108.354 125.773 108.499 125.815L109.112 122.159C108.916 122.125 108.661 122.104 108.345 122.095C108.03 122.078 107.749 122.07 107.501 122.07C106.351 122.07 105.268 122.376 104.254 122.99C103.24 123.595 102.469 124.426 101.94 125.483H101.736L102.26 122.364H98.5653ZM122.28 125.432L122.778 122.364H118.735L119.518 117.659H115.696L114.92 122.364H112.053L111.554 125.432H114.413L112.5 137.027C112.295 138.212 112.393 139.196 112.794 139.98C113.195 140.756 113.8 141.335 114.609 141.719C115.419 142.094 116.327 142.273 117.332 142.256C117.946 142.247 118.466 142.196 118.892 142.102C119.327 142.017 119.672 141.932 119.928 141.847L119.723 138.689C119.587 138.714 119.403 138.749 119.173 138.791C118.943 138.834 118.675 138.855 118.368 138.855C117.95 138.855 117.571 138.791 117.23 138.663C116.898 138.527 116.651 138.276 116.489 137.909C116.327 137.534 116.305 136.976 116.425 136.234L118.224 125.432H122.28Z" fill="#AA0082"/>
</svg>
