<!DOCTYPE svg PUBLIC "-//W3C//DTD SVG 1.1//EN" "http://www.w3.org/Graphics/SVG/1.1/DTD/svg11.dtd">
<!-- Uploaded to: SVG Repo, www.svgrepo.com, Transformed by: SVG Repo Mixer Tools -->
<svg fill="#aa0082" height="800px" width="800px" version="1.1" id="Layer_1" xmlns="http://www.w3.org/2000/svg" xmlns:xlink="http://www.w3.org/1999/xlink" viewBox="0 0 278.11 278.11" xml:space="preserve" stroke="#aa0082" stroke-width="1.390565">
<g id="SVGRepo_bgCarrier" stroke-width="0"/>
<g id="SVGRepo_tracerCarrier" stroke-linecap="round" stroke-linejoin="round"/>
<g id="SVGRepo_iconCarrier"> <g> <g> <g> <path d="M120.149,31.093c-60.232,0-109.232,49-109.232,109.236c0,60.232,49,109.232,109.232,109.232 c60.236,0,109.236-49,109.236-109.232C229.381,80.093,180.381,31.093,120.149,31.093z M120.149,247.288 c-58.98,0-106.964-47.984-106.964-106.964S61.169,33.356,120.149,33.356c58.98,0,106.968,47.988,106.968,106.968 S179.129,247.288,120.149,247.288z"/> <path d="M120.325,18.736c-0.16,0-0.328,0-0.488,0C53.493,19.004-0.263,73.2,0.001,139.544 c0.128,32.14,12.768,62.304,35.584,84.936c22.7,22.516,52.764,34.896,84.72,34.896c0.168,0,0.336,0,0.504,0 c66.344-0.264,120.1-54.456,119.836-120.804C240.373,72.392,186.449,18.736,120.325,18.736z M120.793,255.408 c-0.164,0-0.324,0-0.488,0c-30.896,0-59.972-11.972-81.92-33.748c-22.068-21.884-34.288-51.056-34.416-82.132 C3.713,75.372,55.697,22.964,119.853,22.704c0.16,0,0.312,0,0.472,0c63.936,0,116.088,51.888,116.352,115.884 C236.933,202.744,184.949,255.148,120.793,255.408z"/> <path d="M141.533,196.904l1.928-3.116c0.172-0.276,1.668-2.788,1.668-5.988s-1.496-5.712-1.668-5.988l-1.928-3.116l-1.928,3.116 c-0.172,0.276-1.668,2.788-1.668,5.988s1.496,5.712,1.668,5.988L141.533,196.904z M141.533,183.004c0,0,1.328,2.148,1.328,4.796 c0,2.648-1.328,4.796-1.328,4.796s-1.328-2.148-1.328-4.796C140.205,185.152,141.533,183.004,141.533,183.004z"/> <path d="M150.017,203.024c-2.264-2.264-5.096-2.98-5.412-3.056l-2.628-0.62l0.052-0.22l-0.496,0.116l-0.496-0.116l0.052,0.22 l-2.628,0.62c-0.316,0.076-3.152,0.792-5.412,3.056c-2.264,2.264-2.98,5.096-3.056,5.412l-0.84,3.568l3.568-0.84 c0.316-0.076,3.152-0.792,5.412-3.056c2.264-2.264,2.98-5.096,3.056-5.412l0.344-1.464l0.344,1.464 c0.076,0.316,0.792,3.152,3.056,5.412c2.264,2.26,5.096,2.98,5.412,3.056l3.568,0.84l-0.84-3.568 C152.997,208.124,152.281,205.288,150.017,203.024z M136.529,206.508c-1.872,1.872-4.328,2.452-4.328,2.452 s0.58-2.456,2.452-4.328s4.328-2.452,4.328-2.452S138.401,204.636,136.529,206.508z M146.537,206.508 c-1.872-1.872-2.452-4.328-2.452-4.328s2.456,0.58,4.328,2.452s2.452,4.328,2.452,4.328S148.409,208.38,146.537,206.508z"/> <path d="M136.025,198.764c0.9,0,1.476-0.092,1.476-0.092l3.58-0.576l-2.064-2.968c-0.188-0.264-1.908-2.628-4.852-3.888 c-1.764-0.752-3.52-0.912-4.684-0.912c-0.9,0-1.476,0.092-1.476,0.092l-3.58,0.576l2.064,2.968 c0.188,0.264,1.908,2.628,4.852,3.888C133.101,198.604,134.861,198.764,136.025,198.764z M128.345,192.66 c0,0,0.444-0.068,1.136-0.068c0.956,0,2.384,0.128,3.796,0.728c2.436,1.04,3.888,3.104,3.888,3.104s-0.444,0.068-1.136,0.068 c-0.956,0-2.384-0.128-3.796-0.728C129.797,194.728,128.345,192.66,128.345,192.66z"/> <path d="M153.585,190.328c-1.164,0-2.92,0.16-4.684,0.912c-2.944,1.256-4.664,3.62-4.852,3.888l-2.084,2.964l3.6,0.58 c0,0,0.576,0.092,1.476,0.092c1.164,0,2.92-0.16,4.684-0.912c2.944-1.256,4.664-3.62,4.852-3.888l2.084-2.964l-3.6-0.58 C155.061,190.421,154.485,190.328,153.585,190.328z M150.833,195.768c-1.408,0.604-2.84,0.728-3.792,0.728 c-0.696,0-1.136-0.068-1.136-0.068s1.452-2.064,3.888-3.104c1.408-0.604,2.84-0.728,3.792-0.728c0.696,0,1.136,0.068,1.136,0.068 S153.269,194.728,150.833,195.768z"/> <path d="M63.013,155.645c0.348-1.344-0.684-2.532-1.868-3.116c-0.224-0.104-0.452-0.204-0.684-0.304 c-0.572-0.24-1.104-0.464-1.404-0.84c-0.368-0.46-0.296-1.264,0.14-1.656c0.44-0.392,2.492,0.624,3.072,0.124 c0.644-0.556-0.532-3.608,0.612-4.008c1.144-0.4,1.46,2.188,2.576,1.884c1.116-0.304,0.328-2.708,1.116-2.8 c0.792-0.096,0.484,1.036,0.656,1.308c0.524,0.852,1.764,1.328,2.712,1.036c0.68-0.208,0.74-1.464,0.74-1.464 c0.14-6.856-0.204-13.752-1.024-20.504c-0.052-0.44-0.128-1.108-0.556-1.656c-0.648-0.844-1.764-1.088-3.316-0.724 c-3.304,0.776-6.584,2.364-10.328,5c-3.46,2.428-6.072,4.9-7.972,7.548c-4.64,6.464-5.676,14.644-6.588,21.864 c-0.424,3.364,0.4,5.592,2.328,6.276c0.396,0.14,0.788,0.196,1.18,0.196c0.712,0,1.412-0.184,2.084-0.388 c5.04-1.504,9.972-3.484,14.66-5.884C61.697,157.252,62.725,156.724,63.013,155.645z M45.993,161.788 c-0.772,0.232-1.584,0.44-2.204,0.22c-1.536-0.544-1.36-3.3-1.212-4.464c0.888-7.016,1.896-14.968,6.284-21.084 c1.788-2.488,4.264-4.828,7.568-7.148c3.564-2.504,6.656-4.008,9.74-4.736c0.34-0.08,0.636-0.116,0.884-0.116 c0.344,0,0.584,0.076,0.704,0.224c0.124,0.164,0.168,0.464,0.212,0.816c0.8,6.612,1.14,13.364,1.012,20.076 c-0.124-0.056-0.244-0.132-0.304-0.236c-0.136-0.22-0.248-0.464-0.36-0.712c-0.344-0.748-1.78-2.528-2.552-2.268 c-0.772,0.26-1.18,2.956-1.18,2.956c-0.248-0.432-0.592-0.92-1.22-1.1c-0.528-0.152-1.04-0.044-1.46,0.304 c-0.688,0.572-0.928,1.62-0.864,2.36l0.028,0.256c0.028,0.256,0.064,0.568,0.06,0.828c-1.008-0.408-2.228-0.248-3.06,0.488 c-1.112,0.992-1.272,2.816-0.344,3.988c0.568,0.712,1.364,1.052,2.072,1.348c0.204,0.084,0.408,0.172,0.596,0.264 c0.556,0.272,1.072,0.78,0.968,1.16c-0.076,0.304-0.544,0.58-0.992,0.808C55.773,158.372,50.941,160.312,45.993,161.788z"/> <path d="M78.941,150.352c0.228-0.188,0.448-0.396,0.668-0.6c0.56-0.516,1.084-1.008,1.624-1.164 c0.28-0.084,0.584-0.044,0.848,0.128c0.272,0.172,0.46,0.464,0.516,0.792c0.124,0.788-1.608,1.88-1.724,2.344 c-0.472,1.888,1.468,2.564,2.28,2.86l0.232,0.084c0.272,0.104,0.556,0.4,0.576,0.832c-0.1,0.116-0.368,0.148-0.752,0.184 c-0.596,0.056-2.256,0.296-2.272,1.5c-0.008,0.608,2.104,2.78,2.104,2.78c-0.248,0.052-0.548,0.06-0.916,0.068 c-0.364,0.008-0.724,0.02-1.076,0.076c-1.168,0.188-2.188,1.424-2.32,2.412c-0.092,0.692,0.988,1.22,0.988,1.22 c6.152,3.396,12.644,6.292,19.304,8.624c0.32,0.108,0.752,0.26,1.252,0.26c0.192,0,0.392-0.024,0.596-0.08 c1.056-0.288,1.848-1.316,2.356-3.056c1.148-3.932,1.548-8.224,1.26-13.508c-0.264-4.916-1.044-8.912-2.376-12.212 c-3.268-8.108-10.16-13.128-16.244-17.56c-2.848-2.076-5.344-2.26-7.02-0.52c-0.912,0.944-1.272,2.228-1.572,3.464 c-1.472,6.176-2.448,12.464-2.912,18.688c-0.056,0.716-0.148,2.048,0.672,2.864C76.109,151.88,77.761,151.344,78.941,150.352z M76.069,148.1c0.452-6.132,1.416-12.328,2.872-18.42c0.248-1.048,0.524-2.04,1.14-2.676c1.296-1.344,3.324-0.356,4.792,0.716 c5.896,4.296,12.58,9.164,15.664,16.816c1.26,3.128,2,6.944,2.256,11.672c0.272,5.084-0.108,9.196-1.2,12.936 c-0.316,1.084-0.748,1.772-1.172,1.892c-0.216,0.052-0.512-0.036-0.84-0.148c-6.536-2.288-12.908-5.128-18.948-8.456 c0.188-0.244,0.452-0.476,0.68-0.512c0.272-0.044,0.56-0.048,0.844-0.052c0.864-0.02,3.152-0.828,3.256-1.448 s-2.196-2.896-2.196-2.896c0.044-0.004,0.088-0.008,0.136-0.012c0.56-0.052,1.324-0.12,1.884-0.76 c0.416-0.48,0.568-1.088,0.412-1.716c-0.196-0.784-0.86-1.516-1.656-1.82l-0.252-0.092c-0.408-0.152-0.696-0.268-0.884-0.392 c1.004-0.816,1.616-2.236,1.42-3.488c-0.132-0.812-0.6-1.528-1.284-1.96c-0.664-0.42-1.476-0.536-2.228-0.324 c-0.932,0.268-1.632,0.92-2.312,1.556c-0.204,0.188-0.404,0.372-0.604,0.548c-0.7,0.584-1.408,0.772-1.604,0.572 C75.977,149.364,76.045,148.448,76.069,148.1z"/> <path d="M86.337,186.257c2.86-0.86,4.268-2.584,3.876-4.724c-0.212-1.164-0.928-2.116-1.644-2.996 c-3.572-4.388-7.452-8.484-11.536-12.184c-0.48-0.436-1.34-1.288-2.408-1.116c-1.168,0.152-1.856,1.408-1.704,3.108 c0.024,0.264,0.06,0.536,0.092,0.804c0.084,0.656,0.172,1.276,0.024,1.716c-0.084,0.248-0.256,0.364-0.392,0.416 c-0.22,0.08-0.452,0.056-0.68-0.072c-0.576-0.324-0.868-1.356-0.872-1.9c-0.004-0.544-0.344-0.876-0.344-0.876 c-1.116-0.78-2.22-0.048-2.992,0.46c-0.152,0.1-0.44,0.344-0.66-0.036c-0.028-0.108,0.072-0.288,0.224-0.56 c0.26-0.456,0.592-1.272,0.276-2.008c-0.316-0.736-3.108-0.548-3.108-0.548c0.084-0.16,0.2-0.34,0.34-0.552 c0.172-0.26,0.344-0.524,0.476-0.804c0.472-0.98,0.076-2.416-0.592-3.048c-0.468-0.436-1.436,0.072-1.436,0.072 c-5.34,2.428-10.5,5.364-15.332,8.72c-0.32,0.22-0.852,0.584-1.084,1.26c-0.324,0.92-0.008,2.02,0.972,3.352 c2.168,2.936,4.948,5.556,8.756,8.236c3.532,2.492,6.684,4.128,9.632,5.008c2.172,0.644,4.332,0.904,6.444,0.904 C77.621,188.892,82.321,187.468,86.337,186.257z M57.565,181.592c-3.652-2.572-6.312-5.068-8.368-7.852 c-0.856-1.164-0.78-1.656-0.736-1.784c0.048-0.136,0.228-0.268,0.444-0.416c4.692-3.256,9.684-6.108,14.856-8.476 c0.056,0.228,0.072,0.468,0.012,0.596c-0.1,0.208-0.236,0.404-0.364,0.596c-0.416,0.624-1.584,2.476-0.584,3.168 c0.52,0.36,3.012,0.052,3.012,0.052c-0.244,0.428-0.576,1.02-0.396,1.776c0.14,0.6,0.536,1.06,1.112,1.288 c0.676,0.268,1.508,0.188,2.132-0.216l0.188-0.128c0.22-0.144,0.384-0.248,0.508-0.312c0.112,1.128,0.788,2.268,1.752,2.808 c0.672,0.38,1.444,0.44,2.12,0.172c0.656-0.248,1.16-0.784,1.388-1.456c0.276-0.812,0.164-1.664,0.056-2.484 c-0.036-0.244-0.068-0.484-0.084-0.724c-0.068-0.76,0.136-1.224,0.232-1.276c0.052-0.004,0.344,0.052,1.04,0.688 c4.02,3.644,7.844,7.68,11.36,11.996c0.6,0.74,1.152,1.464,1.292,2.236c0.284,1.548-1.308,2.372-2.696,2.788 c-5.796,1.748-12.356,3.736-19.136,1.724C63.937,185.532,60.949,183.972,57.565,181.592z"/> <path d="M87.825,140.216c0.416-0.488,0.884-1.04,1.08-1.78c0.232-0.856-0.02-1.98-0.936-2.48 c-0.388-0.208-0.856-0.272-1.38-0.212c-2.04,0.252-3.352,2.16-3.704,3.82c-0.36,1.696,1.368,4.844,1.368,4.844L87.825,140.216z M84.545,139.916c0.24-1.124,1.088-2.34,2.256-2.484c0.06-0.008,0.108-0.012,0.156-0.012c0.096,0,0.164,0.016,0.196,0.032 c0.088,0.052,0.172,0.296,0.104,0.548c-0.1,0.372-0.412,0.736-0.736,1.116l-2.084,2.44C84.409,141,84.433,140.448,84.545,139.916 z"/> <path d="M93.721,150.6c0.568-0.04,1.344-0.088,2.036-0.48c0.768-0.44,1.396-1.412,1.1-2.416c-0.124-0.416-0.4-0.792-0.816-1.124 c-1.612-1.264-3.892-0.868-5.316,0.052c-1.468,0.936-2.44,2.388-3.3,3.672L93.721,150.6z M91.645,148.06 c0.552-0.356,1.264-0.584,1.948-0.584c0.508,0,1.004,0.128,1.396,0.436c0.196,0.156,0.236,0.256,0.244,0.276 c0.028,0.092-0.096,0.332-0.312,0.452c-0.324,0.184-0.784,0.232-1.316,0.264l-3.2,0.232 C90.777,148.724,91.185,148.356,91.645,148.06z"/> <path d="M94.149,157.804c-1.724-0.284-4.76,1.628-4.76,1.628l4.384,3.34c0.484,0.368,1.084,0.824,1.844,0.98 c0.152,0.032,0.316,0.052,0.48,0.052c0.76,0,1.58-0.352,1.94-1.128c0.188-0.4,0.232-0.868,0.132-1.388 C97.853,159.552,96.197,158.116,94.149,157.804z M96.497,161.952c-0.048,0.1-0.288,0.176-0.54,0.136 c-0.384-0.08-0.776-0.38-1.156-0.668l-2.556-1.944c0.556-0.064,1.104-0.072,1.644,0.008c1.132,0.176,2.396,0.956,2.604,2.112 C96.537,161.832,96.505,161.936,96.497,161.952z"/> <path d="M79.285,182.788c0.412,0.468,1.06,0.816,1.728,0.816c0.284,0,0.58-0.064,0.856-0.212 c0.392-0.204,0.708-0.552,0.948-1.028c0.92-1.844,0.072-3.988-1.108-5.2c-1.204-1.244-2.832-1.912-4.26-2.5l0.96,6.236 C78.573,181.48,78.777,182.2,79.285,182.788z M80.485,178.348c0.8,0.82,1.336,2.204,0.808,3.256 c-0.108,0.22-0.2,0.272-0.22,0.284c-0.08,0.032-0.336-0.024-0.504-0.216c-0.26-0.3-0.396-0.776-0.524-1.232l-0.868-3.096 C79.661,177.628,80.105,177.956,80.485,178.348z"/> <path d="M66.497,180.008c-0.3,0.528-0.672,1.18-0.732,1.952c-0.068,0.888,0.388,1.944,1.384,2.256 c0.188,0.064,0.388,0.092,0.592,0.092c0.256,0,0.524-0.048,0.8-0.14c1.956-0.628,2.892-2.744,2.928-4.44 c0.036-1.752-0.632-3.368-1.22-4.788L66.497,180.008z M68.013,182.556c-0.176,0.06-0.296,0.064-0.352,0.044 c-0.092-0.028-0.22-0.256-0.2-0.512c0.032-0.392,0.272-0.82,0.512-1.236l1.588-2.784c0.136,0.54,0.22,1.084,0.208,1.628 C69.745,180.844,69.137,182.197,68.013,182.556z"/> <path d="M54.529,174.24c-0.74,0.72-0.932,1.816-0.464,2.612c0.228,0.376,0.588,0.672,1.08,0.888 c0.488,0.212,0.988,0.304,1.48,0.304c1.424,0,2.8-0.772,3.656-1.7c1.184-1.288,1.752-2.936,2.256-4.392l-6.172,1.304 C55.797,173.452,55.081,173.7,54.529,174.24z M59.953,173.836c-0.256,0.492-0.556,0.956-0.92,1.356 c-0.78,0.848-2.132,1.46-3.208,0.984c-0.232-0.096-0.288-0.184-0.296-0.196c-0.056-0.096,0.016-0.352,0.192-0.528 c0.276-0.268,0.748-0.428,1.2-0.584L59.953,173.836z"/> <path d="M46.365,150.484c-0.852,0.256-1.676,1.072-1.604,2.096c0.02,0.436,0.2,0.86,0.548,1.292 c0.84,1.04,2.108,1.444,3.336,1.444c0.656,0,1.3-0.116,1.86-0.316c1.628-0.592,2.908-1.796,4.028-2.86l-6.08-1.684 C47.857,150.372,47.117,150.26,46.365,150.484z M49.925,153.404c-1.08,0.4-2.56,0.312-3.292-0.592 c-0.156-0.196-0.172-0.288-0.176-0.328c-0.004-0.096,0.164-0.296,0.412-0.372c0.136-0.044,0.292-0.06,0.456-0.06 c0.276,0,0.584,0.048,0.88,0.088l3.172,0.48C50.917,152.948,50.437,153.22,49.925,153.404z"/> <path d="M52.365,144.612c1.576,0.752,3.32,0.812,4.864,0.864l-3.072-5.508c-0.356-0.492-0.8-1.1-1.48-1.468 c-0.78-0.42-1.936-0.448-2.628,0.332c-0.288,0.324-0.468,0.756-0.532,1.292C49.325,141.876,50.497,143.72,52.365,144.612z M51.321,139.96c0.032-0.036,0.104-0.06,0.204-0.06c0.104,0,0.232,0.024,0.348,0.088c0.34,0.184,0.632,0.584,0.916,0.972 l1.884,2.592c-0.548-0.096-1.076-0.248-1.568-0.484c-1.04-0.492-2.02-1.6-1.896-2.756 C51.237,140.068,51.301,139.98,51.321,139.96z"/> <path d="M63.129,139.664l1.348-6.16c0.056-0.6,0.128-1.348-0.14-2.08c-0.3-0.836-1.116-1.652-2.184-1.492 c-0.436,0.044-0.86,0.252-1.256,0.616c-1.528,1.38-1.508,3.692-0.84,5.248C60.733,137.408,62.005,138.608,63.129,139.664z M62.037,131.809c0.184-0.168,0.28-0.184,0.308-0.188c0,0,0.004,0,0.008,0c0.096,0,0.296,0.156,0.384,0.388 c0.136,0.372,0.084,0.884,0.044,1.332l-0.304,3.204c-0.348-0.44-0.644-0.908-0.86-1.408 C61.169,134.08,61.165,132.6,62.037,131.809z"/> <polygon points="153.633,153.86 170.137,151.092 195.029,160.336 195.621,158.74 173.505,150.528 182.581,149.004 197.117,155.464 197.805,153.912 185.621,148.496 192.069,147.412 203.157,152.344 203.845,150.788 195.105,146.904 209.317,144.52 209.033,142.84 153.353,152.18 "/> <path d="M190.717,93.257c-1.484-0.604-3.028-0.908-4.6-1.032c-2.908-4.272-6.168-8.344-9.92-12.068 c-8.016-7.952-17.448-13.9-27.66-17.88c0.22-2.628,0.228-5.272-0.732-7.744c-1.376-3.544-4.628-6.196-8.704-7.096 c-3.136-0.708-6.6-0.436-10.936,0.82c-0.804,0.228-1.636,0.456-2.132,0.22c-0.464-0.232-0.86-0.888-1.196-1.484 c-2.92-5.172-9.572-8.336-16.532-7.856c-7.488,0.508-13.648,5.068-16.48,12.196c-0.116,0.292-0.204,0.6-0.284,0.904 c-0.116,0.424-0.232,0.824-0.412,0.988c-0.224,0.212-0.636,0.28-1.096,0.312c-1.004-0.076-2.028-0.052-3.064,0.068 c-3.52,0.124-6.324,0.82-8.652,2.08c-3.628,1.96-5.888,5.388-6.048,9.16c-0.088,2.024,0.432,3.984,1.152,5.904 c-20.408,13.932-34.12,36.896-35.384,63.08c-4,6.316-6.352,13.788-6.352,21.816c0,18.78,12.712,34.592,29.924,39.308 c14.704,14.784,34.988,23.996,57.416,23.996h0.336c2.36-0.008,4.68-0.18,6.98-0.404c4.304,3.028,9.536,4.824,15.188,4.824 c12.556,0,23.076-8.796,25.78-20.544c11.984-8.92,21.424-21.032,27.032-35.112c1.42-0.524,2.852-1.12,4.3-1.86 c5.5-2.808,10.068-6.588,13.196-10.924c3.416-4.72,5.74-11.756,2.024-17.356c-2.524-3.8-7.06-5.756-11.584-7.312 c-0.844-0.288-1.756-0.58-2.7-0.864c-0.36-2.972-0.94-5.9-1.704-8.78c1.588-4.032,2.352-8.168,2.196-12.156 C199.845,102.861,197.273,95.921,190.717,93.257z M79.397,57.68c2.42-1.308,5.416-1.864,9.62-1.852 c0.336,0.012,0.7,0.008,1.072-0.012c5.84,0.536,10.772,4.796,11.644,10.64l2.244-0.336c-0.88-5.892-5.24-10.4-10.768-12 c0.232-0.432,0.404-0.876,0.512-1.272c0.064-0.228,0.124-0.456,0.212-0.676c2.54-6.388,7.832-10.312,14.524-10.768 c6.096-0.404,11.904,2.28,14.404,6.708c0.412,0.736,0.968,1.48,1.712,2.028c-2.628,1.696-4.748,4-5.972,6.716 c-1.5,3.32-1.608,6.948-0.308,10.212l2.108-0.836c-1.076-2.688-0.976-5.688,0.264-8.44c1.5-3.324,4.528-6.008,8.304-7.36 l-0.012-0.028c3.86-1.104,6.932-1.348,9.648-0.744c3.336,0.74,5.98,2.872,7.08,5.708c1.056,2.716,0.716,5.804,0.356,9.08 c-0.156,1.408-0.312,2.82-0.356,4.208c-0.044,1.276,0.032,2.904,0.98,4.124c1.144,1.464,2.972,1.68,4.56,1.868 c2.108,0.248,7.124,1.26,8.08,5.296c0.328,1.384,0.1,2.956-0.192,4.452c-0.788,4.048-2.356,7.92-4.536,11.204 c-2.424,3.656-8.428,6.312-13.472,6.128c-2.824-0.12-6.632-1.172-9.14-5.264c0.66-1.24,1.412-2.448,2.212-3.636 c1.4,0.324,2.852,0.548,4.38,0.548c0.532,0,1.068-0.02,1.604-0.064l-0.172-2.256c-4.292,0.324-8.444-0.884-11.056-3.232 c-1.696-1.524-2.62-3.404-2.684-5.432l-2.264,0.072c0.06,2.016,0.756,3.896,2.032,5.54c-1.308,1.888-2.448,3.992-3.3,5.6 c-0.136,0.252-0.272,0.516-0.412,0.764c-1.5-2.468-1.792-2.88-2.2-4.096c0.452-0.184,0.92-0.292,1.356-0.528l-1.084-1.992 c-4.556,2.48-10.216,1.392-12.608-2.44l-1.92,1.204c1.024,1.64,2.524,2.86,4.256,3.676c0.084,1.584,0.084,3.64,0.048,5.272 c-2.18-2.296-5.3-4.3-9.732-6.284l-0.04-0.016c0.32-0.92,0.568-1.876,0.628-2.888l-2.264-0.14c-0.284,4.684-4.336,8.4-9.092,8.4 c-0.084,0-0.176-0.004-0.26-0.004l-0.064,2.264c0.104,0.004,0.216,0.004,0.324,0.004c1.372,0,2.688-0.272,3.92-0.728 c1.832,1.2,3.58,2.476,5.148,3.892c-0.212,3.412-1.58,5.82-4.148,7.096c-5.3,2.632-13.564,0.068-15.452-1.292 c-2.788-2.012-8.976-8.072-9.152-13.604c-0.052-1.56-0.812-4.916,5.636-7.292c1.372-0.504,3.036-1.256,3.664-2.992 c0.52-1.436,0.06-3.016-0.4-4.228c-0.496-1.312-1.1-2.616-1.708-3.92c-1.412-3.036-2.748-5.904-2.62-8.776 C74.665,61.968,76.481,59.26,79.397,57.68z M127.477,126.093c0.276,1.024,0.116,1.232-0.136,1.408 c-0.416,0.284-1.212,0.42-1.796,0.524l-4.604,0.796l-5.536,0.72c-0.584,0.08-1.396,0.176-1.868,0.024 c-0.3-0.096-0.516-0.248-0.548-1.304c-0.288-9.136-2.656-17.044-7.04-23.496c-2.576-3.796-6.024-7.092-10.016-9.888 c1.504-0.992,2.74-2.336,3.628-3.9c5.092,2.348,8.736,5.236,10.528,8.048l0.512,0.784l0.856-0.316 c1.248-0.46,1.096-6.048,1.08-8.468c0.872,0.192,1.772,0.304,2.688,0.304s1.84-0.14,2.76-0.34c0.54,1.332,1.392,3.02,3.308,6.028 l0.408,0.584l0.648-0.028c0.852-0.032,1.144-0.584,2.38-2.912c0.768-1.448,1.776-3.32,2.9-5.008 c1.216,1.052,2.664,1.88,4.26,2.492c-1.952,2.996-3.516,6.148-4.532,9.42C125.045,109.012,125.085,117.268,127.477,126.093z M34.525,155.64c0-20.924,16.924-37.948,37.732-37.948s37.732,17.024,37.732,37.948c0,20.92-16.924,37.944-37.732,37.944 S34.525,176.564,34.525,155.64z M141.533,220.528c-13.036,0-23.64-10.604-23.64-23.64s10.604-23.636,23.64-23.636 s23.636,10.6,23.636,23.636C165.169,209.924,154.569,220.528,141.533,220.528z M167.869,199.588 c0.092-0.888,0.136-1.788,0.136-2.7c0-14.596-11.876-26.472-26.472-26.472s-26.476,11.876-26.476,26.472 c0,7.78,3.396,14.764,8.756,19.612c-1.476,0.1-2.956,0.172-4.456,0.18h-0.328c-20.492,0-39.132-7.94-53.18-20.816 c2.092,0.336,4.22,0.56,6.404,0.56c22.368,0,40.568-18.292,40.568-40.78c0-22.488-18.196-40.788-40.564-40.788 c-12.836,0-24.276,6.044-31.716,15.428c2.256-23.764,15.08-44.496,33.748-57.408c0.268,0.6,0.54,1.2,0.816,1.796 c0.584,1.248,1.164,2.504,1.636,3.764c0.296,0.78,0.66,1.912,0.392,2.652c-0.284,0.796-1.36,1.244-2.524,1.724 c-3.036,1.252-5.604,3.54-6.364,5.052c-0.76,1.508-0.664,3.292-0.48,5.028c0.192,1.796,1.728,4.956,1.72,4.96 c2.512,4.308,5.228,7.516,8.304,9.732c1.712,1.236,6.408,2.868,11.164,2.868c2.304,0,4.624-0.384,6.628-1.38 c2.028-1.008,4.38-3.056,5.176-7.072c1.208,1.28,2.344,2.604,3.312,4.028c4.136,6.092,6.372,13.592,6.648,22.292 c0.02,0.676,0.084,2.736,2.116,3.392c0.436,0.144,0.908,0.192,1.36,0.192c0.536,0,1.056-0.068,1.484-0.12l10.244-1.532 c0.792-0.136,1.88-0.32,2.708-0.896c1.748-1.224,1.228-3.14,1.032-3.864c-2.304-8.52-2.352-16.128-0.144-23.26 c0.368-1.188,0.836-2.356,1.352-3.508c2.412,3.176,5.896,5.076,10.144,5.256c5.912,0.344,12.588-2.816,15.456-7.14 c2.34-3.528,4.024-7.684,4.872-12.02c0.34-1.748,0.596-3.608,0.172-5.416c-1.284-5.424-7.432-6.72-10.136-7.04 c-1.16-0.136-2.356-0.276-2.916-0.996c-0.5-0.644-0.532-1.76-0.504-2.66c0.044-1.328,0.192-2.68,0.344-4.032 c0.004-0.024,0.004-0.052,0.008-0.076c9.7,3.872,18.656,9.588,26.292,17.164c3.264,3.236,6.144,6.748,8.756,10.42 c-2.252,0.112-4.524,0.516-6.736,1.008c-4.6,1.016-10.528,2.584-15.544,5.696c-5.904,3.664-10.56,9.484-13.1,16.392 c-2.208,5.984-2.916,12.796-2.096,20.312c0.076,0.676,0.14,1.316-0.056,1.78c-0.172,0.408-0.604,0.824-0.988,1.192 c-3.776,3.64-7.26,7.824-10.632,11.876c-1.516,1.824-3.068,3.668-4.644,5.48c-4.876,1.452-9.868,2.912-14.732,3.86l0.392,2.236 c3.26-0.508,6.564-0.88,9.856-1.288c-0.448,0.456-0.872,0.968-1.328,1.408l1.54,1.664c1.412-1.252,2.924-2.44,4.372-3.672 c5.48-0.6,10.976-1.08,16.456-1.392c2.448-0.144,4.64-0.228,6.752,0.188c2.548,0.5,4.916,1.752,7.332,3.036 c7.132,3.764,15.336,7.668,24.004,7.668c1.156,0,2.324-0.072,3.496-0.22c1.264-0.16,2.56-0.452,3.864-0.804 C186.345,180.82,178.145,191.44,167.869,199.588z M201.545,132.408c4.148,1.416,8.284,3.18,10.432,6.416 c3.08,4.632,0.864,10.852-1.968,14.768c-2.924,4.048-7.208,7.584-12.392,10.236c-3.524,1.8-6.956,2.916-10.208,3.328 c-9.256,1.188-18.376-3.096-26.276-7.272c-2.436-1.288-4.956-2.62-7.832-3.188c-1.32-0.256-2.664-0.344-4.032-0.344 c-1.084,0-2.18,0.056-3.288,0.116c-4.396,0.256-8.808,0.612-13.216,1.048c0.1-0.084,0.2-0.168,0.304-0.252 c4.828-1.436,9.764-2.876,14.572-3.808c0.724-0.14,1.616-0.312,2.404-0.792c0.96-0.588,1.512-1.464,2.024-2.276 c2.272-3.612,4.868-6.684,7.644-9.416c0.796-0.072,1.596-0.128,2.408-0.184c9.36-0.632,19.968-1.82,27.344-7.956 c1.024-0.852,1.976-1.844,2.888-2.904c1.808,0.332,3.54,0.748,5.172,1.216c0,0.008,0.004,0.02,0.004,0.028 c0.04,0.004,0.084,0.008,0.124,0.012C199.033,131.585,200.357,132.001,201.545,132.408z M137.497,153.624 c3.608-2.844,7.276-5.628,11.02-8.292c1.92-1.368,3.676-2.56,5.64-3.284c0.64-0.244,1.312-0.424,2-0.576 c-2.152,2.336-4.208,4.844-6.036,7.748c-0.388,0.612-0.752,1.196-1.26,1.508c-0.432,0.26-1.052,0.384-1.648,0.5 C143.989,151.856,140.737,152.712,137.497,153.624z M193.901,127.944c0.82-1.148,1.604-2.36,2.308-3.692 c0.056-0.108,0.092-0.216,0.148-0.324c0.34,1.584,0.616,3.176,0.836,4.784C196.133,128.432,195.033,128.181,193.901,127.944z M194.209,123.192c-1.716,3.248-3.8,5.904-6.196,7.896c-6.852,5.7-17.036,6.828-26.204,7.444 c-2.812,0.188-5.728,0.384-8.444,1.388c-2.224,0.824-4.108,2.096-6.164,3.564c-3.844,2.736-7.62,5.572-11.32,8.496 c0.024-0.032,0.048-0.06,0.072-0.084c3.328-4,6.768-8.14,10.456-11.692c0.512-0.488,1.148-1.1,1.508-1.936 c0.42-1.012,0.316-2.02,0.216-2.98c-0.776-7.096-0.108-13.564,1.972-19.22c2.376-6.432,6.696-11.848,12.172-15.244 c4.728-2.932,10.412-4.432,14.836-5.416c2.46-0.54,4.984-0.988,7.416-0.988c1.856,0,3.66,0.26,5.34,0.94 c5.552,2.256,7.74,8.296,7.936,13.192C197.993,113.348,196.749,118.413,194.209,123.192z"/> <polygon points="193.469,108.492 193.241,106.804 183.949,108.041 191.301,101.353 190.153,100.096 150.457,136.212 151.597,137.468 162.481,127.568 188.957,122.408 188.629,120.736 164.909,125.361 173.425,117.616 173.437,117.713 191.209,115.208 190.977,113.52 175.533,115.697 181.737,110.052 "/> <path d="M277.537,44.056c-0.052-2.292-0.52-3.344-1.656-5.372l-0.288-0.52l-5.036,0.084l0.472,49.876l-2.308,0.048l-0.468-49.884 l-7.156,0.12l0.472,50.024c-0.796,0.004-1.868,0.024-2.664,0.044l-0.472-50.024l-7.156,0.12l0.468,49.884l-2.192,0.028 l-0.472-49.876l-5.036,0.088l-0.28,0.532c-0.212,0.404-0.388,0.704-0.524,0.948c-0.644,1.124-0.772,1.504-0.78,3.304 c-0.084,19.94,0.08,38.132,0.504,55.62l0.024,1.688c0.064,5.784,0.276,10.68,2.216,11.968c9.016,5.964,8.368,15.124,7.62,25.728 c-0.132,1.884-0.268,3.78-0.34,5.664c-0.716,17.892-1.22,36.092-1.708,53.696c-0.168,6.06-0.336,12.12-0.512,18.18 c-0.196,6.8-0.132,14.444,3.132,19.052c0.912,1.288,2.036,2.268,3.364,2.928c1.32,0.66,2.84,1.008,4.552,1.036l0.272-0.012 l0.264-0.004l0.288,0.004c3.42-0.176,6.056-1.6,7.828-4.236c3.176-4.72,3.092-12.364,2.768-19.152 c-0.288-6.004-0.568-12.012-0.848-18.016c-0.824-17.628-1.672-35.852-2.724-53.76c-0.112-1.88-0.28-3.768-0.448-5.648 c-0.948-10.576-1.768-19.708,7.132-25.98c2.04-1.44,2.228-6.456,2.244-11.912l0.004-0.64 C278.177,82.216,277.997,64.02,277.537,44.056z M276.181,99.66l-0.004,0.648c-0.008,2.412-0.032,8.82-1.224,9.664 c-10.064,7.088-9.084,18-8.14,28.548c0.168,1.844,0.332,3.696,0.44,5.544c1.056,17.888,1.904,36.104,2.724,53.72 c0.28,6.008,0.56,12.016,0.852,18.02c0.3,6.272,0.4,13.296-2.28,17.28c-1.436,2.128-3.556,3.24-6.488,3.388l-0.364-0.008 l-0.368,0.02c-2.936-0.056-5.072-1.088-6.548-3.168c-2.756-3.892-2.788-10.916-2.608-17.196c0.176-6.06,0.344-12.12,0.512-18.184 c0.488-17.592,0.992-35.78,1.704-53.652c0.076-1.848,0.204-3.708,0.336-5.56c0.744-10.576,1.516-21.516-8.676-28.26 c-1.052-0.696-1.124-7.244-1.148-9.712l-0.028-1.732c-0.42-17.456-0.584-35.616-0.5-55.524c0.004-1.1,0.004-1.1,0.384-1.76 c0.08-0.144,0.176-0.304,0.28-0.496l2.172-0.036l0.472,49.868l6.008-0.076L253.217,41.1l3.344-0.056l0.472,50.1l0.996-0.072 c0.548-0.04,3.904-0.1,4.488-0.076l0.992,0.036l-0.476-50.096l3.344-0.056l0.472,49.892l6.12-0.128l-0.472-49.872l2.16-0.036 c0.772,1.42,0.952,1.996,0.988,3.4C276.093,64.068,276.273,82.232,276.181,99.66z"/> <polygon points="255.437,197.708 257.341,197.784 257.617,185.796 255.717,185.716 "/> <polygon points="256.021,181.024 257.921,181.104 258.781,144.14 256.877,144.06 "/> </g> </g> </g> </g>
</svg>